<svg width="4" height="16" viewBox="0 0 4 16" fill="none" xmlns="http://www.w3.org/2000/svg">
<path d="M3 2C3.26522 2 3.51957 1.89464 3.70711 1.70711C3.89464 1.51957 4 1.26522 4 1C4 0.734784 3.89464 0.48043 3.70711 0.292893C3.51957 0.105357 3.26522 0 3 0H1C0.734784 0 0.48043 0.105357 0.292893 0.292893C0.105357 0.48043 0 0.734784 0 1V15C0 15.2652 0.105357 15.5196 0.292893 15.7071C0.48043 15.8946 0.734784 16 1 16H3C3.26522 16 3.51957 15.8946 3.70711 15.7071C3.89464 15.5196 4 15.2652 4 15C4 14.7348 3.89464 14.4804 3.70711 14.2929C3.51957 14.1054 3.26522 14 3 14H2V2H3Z" fill="white"/>
</svg>
