<svg width="13" height="11" viewBox="0 0 13 11" fill="none" xmlns="http://www.w3.org/2000/svg">
<path d="M11.82 5.42001L9 1.42001C8.84706 1.20442 8.615 1.05815 8.35452 1.01318C8.09405 0.968208 7.82637 1.02819 7.61 1.18001C7.50185 1.2558 7.40978 1.35226 7.33911 1.46382C7.26843 1.57538 7.22056 1.69983 7.19824 1.83C7.17593 1.96016 7.17962 2.09345 7.2091 2.22218C7.23858 2.35091 7.29327 2.47253 7.37 2.58001L9.09 5.00001H1C0.734784 5.00001 0.48043 5.10537 0.292893 5.29291C0.105357 5.48044 0 5.7348 0 6.00001C0 6.26523 0.105357 6.51958 0.292893 6.70712C0.48043 6.89465 0.734784 7.00001 1 7.00001H9L7.2 9.40001C7.12121 9.50507 7.06388 9.62462 7.03129 9.75183C6.99869 9.87904 6.99148 10.0114 7.01005 10.1414C7.02862 10.2714 7.07262 10.3965 7.13953 10.5095C7.20643 10.6225 7.29494 10.7212 7.4 10.8C7.5731 10.9298 7.78363 11 8 11C8.15524 11 8.30836 10.9639 8.44721 10.8944C8.58607 10.825 8.70685 10.7242 8.8 10.6L11.8 6.60001C11.9281 6.43088 11.999 6.2254 12.0026 6.01328C12.0062 5.80116 11.9423 5.59339 11.82 5.42001Z" fill="white"/>
</svg>
