<svg width="16" height="15" viewBox="0 0 16 15" fill="none" xmlns="http://www.w3.org/2000/svg">
<path d="M15 8H3.14L6.77 12.36C6.85405 12.4611 6.91735 12.5778 6.9563 12.7034C6.99526 12.829 7.00909 12.961 6.99702 13.0919C6.97264 13.3564 6.84422 13.6003 6.64 13.77C6.43578 13.9397 6.1725 14.0214 5.90808 13.997C5.64365 13.9726 5.39974 13.8442 5.23 13.64L0.23 7.64C0.196361 7.59228 0.166279 7.54214 0.139999 7.49C0.139999 7.44 0.0900002 7.41 0.0699997 7.36C0.0246735 7.24534 0.000941277 7.12329 0 7C0.000941277 6.87671 0.0246735 6.75466 0.0699997 6.64C0.0699997 6.59 0.119999 6.56 0.139999 6.51C0.166279 6.45786 0.196361 6.40773 0.23 6.36L5.23 0.360002C5.32402 0.247119 5.44176 0.156339 5.57485 0.0941181C5.70793 0.0318971 5.85309 -0.000236672 6 1.91036e-06C6.23365 -0.000454603 6.46009 0.0809208 6.64 0.230002C6.74126 0.313951 6.82496 0.417051 6.88631 0.533399C6.94766 0.649746 6.98546 0.777054 6.99754 0.908031C7.00961 1.03901 6.99573 1.17108 6.95669 1.29668C6.91764 1.42229 6.8542 1.53895 6.77 1.64L3.14 6H15C15.2652 6 15.5196 6.10536 15.7071 6.2929C15.8946 6.48043 16 6.73479 16 7C16 7.26522 15.8946 7.51957 15.7071 7.70711C15.5196 7.89464 15.2652 8 15 8Z" fill="#4C60EB"/>
</svg>
