<svg width="34" height="34" viewBox="0 0 34 34" fill="none" xmlns="http://www.w3.org/2000/svg">
<path opacity="0.1" d="M26 0H8C3.58172 0 0 3.58172 0 8V26C0 30.4183 3.58172 34 8 34H26C30.4183 34 34 30.4183 34 26V8C34 3.58172 30.4183 0 26 0Z" fill="#4C60EB"/>
<g clip-path="url(#clip0)">
<path d="M17.9024 11L17.8863 11.0814L15.2776 22.5597L15.1795 23H16.7937L16.8099 22.9186L19.4186 11.4403L19.5167 11H17.9024V11ZM14.2174 12.5652L14.0056 12.7285L9.30991 16.3807L9 16.6254V17.3757L9.30991 17.6203L14.0056 21.2725L14.2174 21.4358V19.4631L11.0541 17.001L14.2174 14.539V12.5663V12.5652ZM20.4783 12.5652V14.5379L23.6416 17L20.4783 19.4621V21.4348L20.6901 21.2715L25.3857 17.6193L25.6957 17.3746V16.6243L25.3857 16.3797L20.6901 12.7275L20.4783 12.5642V12.5652Z" fill="#4C60EB"/>
</g>
<defs>
<clipPath id="clip0">
<rect width="16.6957" height="12" fill="white" transform="translate(9 11)"/>
</clipPath>
</defs>
</svg>
