<svg width="18" height="20" viewBox="0 0 18 20" fill="none" xmlns="http://www.w3.org/2000/svg">
<path d="M17.4201 8.18001L9.71012 0.30001C9.61715 0.206281 9.50655 0.131887 9.38469 0.0811183C9.26283 0.0303497 9.13213 0.00421143 9.00012 0.00421143C8.8681 0.00421143 8.7374 0.0303497 8.61554 0.0811183C8.49368 0.131887 8.38308 0.206281 8.29012 0.30001L0.580115 8.19001C0.393552 8.37808 0.24621 8.60133 0.146643 8.84682C0.0470768 9.0923 -0.00272978 9.35512 0.000115364 9.62001V18C-0.00065946 18.5119 0.194889 19.0046 0.54649 19.3767C0.898091 19.7488 1.37898 19.9719 1.89012 20H5.00012V11C5.00012 10.7348 5.10547 10.4804 5.29301 10.2929C5.48055 10.1054 5.7349 10 6.00012 10H12.0001C12.2653 10 12.5197 10.1054 12.7072 10.2929C12.8948 10.4804 13.0001 10.7348 13.0001 11V20H16.1101C16.6213 19.9719 17.1021 19.7488 17.4537 19.3767C17.8053 19.0046 18.0009 18.5119 18.0001 18V9.62001C18.0009 9.08294 17.7929 8.56659 17.4201 8.18001Z" fill="white" fill-opacity="0.6"/>
</svg>
