<svg width="14" height="22" viewBox="0 0 14 22" fill="none" xmlns="http://www.w3.org/2000/svg">
<path fill-rule="evenodd" clip-rule="evenodd" d="M1.2831 10.3516L10.7 1.11948C10.9178 0.905784 11.2085 0.788055 11.5186 0.788055C11.8286 0.788055 12.1193 0.905784 12.3371 1.11948L13.0306 1.79921C13.4819 2.24212 13.4819 2.96199 13.0306 3.40423L5.12301 11.1568L13.0394 18.9179C13.2572 19.1316 13.3774 19.4165 13.3774 19.7203C13.3774 20.0244 13.2572 20.3092 13.0394 20.5231L12.3459 21.2027C12.1279 21.4164 11.8373 21.5341 11.5273 21.5341C11.2173 21.5341 10.9266 21.4164 10.7088 21.2027L1.2831 11.9622C1.06479 11.7478 0.944874 11.4616 0.94556 11.1573C0.944874 10.8518 1.06479 10.5658 1.2831 10.3516Z" fill="#262332"/>
</svg>
