<svg width="34" height="34" viewBox="0 0 34 34" fill="none" xmlns="http://www.w3.org/2000/svg">
<path opacity="0.1" d="M26 0H8C3.58172 0 0 3.58172 0 8V26C0 30.4183 3.58172 34 8 34H26C30.4183 34 34 30.4183 34 26V8C34 3.58172 30.4183 0 26 0Z" fill="#4C60EB"/>
<g clip-path="url(#clip0)">
<path d="M16.139 22.2866L11.7134 17.861L11.4356 17.5832C11.4005 17.5422 11.3573 17.509 11.3088 17.4855C11.2602 17.462 11.2074 17.4488 11.1535 17.4467C11.0996 17.4446 11.0459 17.4537 10.9956 17.4734C10.9454 17.493 10.8998 17.5229 10.8617 17.561C10.8236 17.5992 10.7937 17.6448 10.774 17.695C10.7544 17.7452 10.7453 17.7989 10.7474 17.8528C10.7495 17.9067 10.7627 17.9596 10.7861 18.0081C10.8096 18.0567 10.8429 18.0998 10.8839 18.1349L9.49866 19.5201C9.13188 19.887 8.92583 20.3846 8.92583 20.9033C8.92583 21.4221 9.13188 21.9197 9.49866 22.2866L9.77649 22.5644L8.94302 23.394C8.87014 23.4673 8.82924 23.5664 8.82924 23.6698C8.82924 23.7732 8.87014 23.8724 8.94302 23.9457L9.22084 24.2235L8.39129 25.057C8.35033 25.0921 8.31706 25.1352 8.29358 25.1838C8.27009 25.2323 8.25689 25.2852 8.25481 25.3391C8.25273 25.393 8.26181 25.4467 8.28148 25.4969C8.30115 25.5471 8.33099 25.5927 8.36912 25.6309C8.40726 25.669 8.45286 25.6988 8.50308 25.7185C8.55329 25.7382 8.60703 25.7473 8.66092 25.7452C8.71481 25.7431 8.76768 25.7299 8.81623 25.7064C8.86478 25.6829 8.90794 25.6497 8.94302 25.6087L9.77257 24.7792L10.0504 25.057C10.1237 25.1299 10.2229 25.1708 10.3263 25.1708C10.4296 25.1708 10.5288 25.1299 10.6021 25.057L11.4317 24.2274L11.7095 24.5052C12.0764 24.872 12.5739 25.0781 13.0927 25.0781C13.6115 25.0781 14.1091 24.872 14.476 24.5052L15.8612 23.12C15.8962 23.161 15.9394 23.1943 15.988 23.2178C16.0365 23.2413 16.0894 23.2545 16.1433 23.2565C16.1972 23.2586 16.2509 23.2495 16.3011 23.2299C16.3513 23.2102 16.3969 23.1804 16.4351 23.1422C16.4732 23.1041 16.503 23.0585 16.5227 23.0083C16.5424 22.9581 16.5515 22.9043 16.5494 22.8504C16.5473 22.7965 16.5341 22.7437 16.5106 22.6951C16.4871 22.6466 16.4539 22.6034 16.4129 22.5683L16.139 22.2866Z" fill="#4C60EB"/>
<path d="M15.7242 16.0611C15.8279 15.9498 15.8843 15.8026 15.8817 15.6506C15.879 15.4985 15.8174 15.3534 15.7098 15.2459C15.6023 15.1383 15.4572 15.0767 15.3052 15.0741C15.1531 15.0714 15.0059 15.1278 14.8947 15.2315L12.5469 17.5793L13.3764 18.4088L15.7242 16.0611Z" fill="#4C60EB"/>
<path d="M17.939 18.2758L15.5912 20.6236L16.4207 21.4532L18.7685 19.1054C18.8722 18.9941 18.9286 18.8469 18.926 18.6949C18.9233 18.5428 18.8617 18.3977 18.7541 18.2902C18.6466 18.1827 18.5015 18.1211 18.3495 18.1184C18.1974 18.1157 18.0502 18.1721 17.939 18.2758Z" fill="#4C60EB"/>
<path d="M25.8862 8.11379C25.8129 8.04091 25.7137 8 25.6104 8C25.507 8 25.4078 8.04091 25.3345 8.11379L23.2606 10.1877L22.9828 9.90984C22.9095 9.83696 22.8103 9.79606 22.7069 9.79606C22.6036 9.79606 22.5044 9.83696 22.4311 9.90984L21.535 10.8059L21.2572 10.5281C20.8903 10.1613 20.3927 9.95526 19.8739 9.95526C19.3551 9.95526 18.8576 10.1613 18.4907 10.5281L16.4129 12.6059C16.3381 12.5418 16.2418 12.5083 16.1433 12.5121C16.0448 12.5159 15.9514 12.5567 15.8817 12.6264C15.812 12.6961 15.7712 12.7895 15.7674 12.888C15.7636 12.9865 15.7971 13.0828 15.8612 13.1576L16.139 13.4354V13.3924L20.5607 17.7828L20.8385 18.0997C20.9099 18.1795 21.0095 18.2286 21.1163 18.2367C21.2192 18.2394 21.319 18.2014 21.3941 18.131C21.4658 18.0579 21.506 17.9595 21.506 17.8571C21.506 17.7547 21.4658 17.6563 21.3941 17.5832L23.4719 15.5054C23.8387 15.1385 24.0448 14.641 24.0448 14.1222C24.0448 13.6034 23.8387 13.1058 23.4719 12.7389L23.1941 12.4611L24.0902 11.565C24.1631 11.4917 24.204 11.3925 24.204 11.2892C24.204 11.1858 24.1631 11.0866 24.0902 11.0133L23.8124 10.7394L25.8823 8.66943C25.9192 8.63331 25.9487 8.59024 25.9689 8.5427C25.9891 8.49515 25.9997 8.44408 26 8.39242C26.0004 8.34077 25.9905 8.28955 25.971 8.24173C25.9515 8.1939 25.9226 8.15042 25.8862 8.11379Z" fill="#4C60EB"/>
</g>
<defs>
<clipPath id="clip0">
<rect width="18" height="18" fill="white" transform="translate(8 8)"/>
</clipPath>
</defs>
</svg>
