<svg width="34" height="34" viewBox="0 0 34 34" fill="none" xmlns="http://www.w3.org/2000/svg">
<path opacity="0.1" d="M26 0H8C3.58172 0 0 3.58172 0 8V26C0 30.4183 3.58172 34 8 34H26C30.4183 34 34 30.4183 34 26V8C34 3.58172 30.4183 0 26 0Z" fill="#4C60EB"/>
<path d="M16.729 12.3829C17.34 12.3829 17.9372 12.5641 18.4452 12.9035C18.9532 13.2429 19.3491 13.7254 19.5829 14.2898C19.8167 14.8543 19.8779 15.4754 19.7587 16.0746C19.6395 16.6738 19.3453 17.2242 18.9133 17.6562C18.4813 18.0882 17.9309 18.3824 17.3316 18.5016C16.7324 18.6208 16.1113 18.5596 15.5469 18.3258C14.9825 18.092 14.5 17.6961 14.1606 17.1881C13.8212 16.6801 13.64 16.0829 13.64 15.4719C13.6403 14.6528 13.9658 13.8672 14.5451 13.288C15.1243 12.7087 15.9098 12.3832 16.729 12.3829ZM16.729 13.3049C16.1543 13.3049 15.6031 13.5332 15.1967 13.9396C14.7903 14.346 14.562 14.8972 14.562 15.4719C14.562 16.0467 14.7903 16.5978 15.1967 17.0042C15.6031 17.4106 16.1543 17.6389 16.729 17.6389C17.0191 17.6477 17.3081 17.5982 17.5787 17.4933C17.8493 17.3884 18.0961 17.2301 18.3044 17.028C18.5127 16.826 18.6784 16.5841 18.7915 16.3168C18.9046 16.0495 18.9629 15.7622 18.9629 15.4719C18.9629 15.1817 18.9046 14.8944 18.7915 14.6271C18.6784 14.3598 18.5127 14.1179 18.3044 13.9158C18.0961 13.7137 17.8493 13.5555 17.5787 13.4506C17.3081 13.3456 17.0191 13.2961 16.729 13.3049Z" fill="#4C60EB"/>
<path d="M16.729 6.85C18.6597 6.84545 20.5484 7.41411 22.1556 8.48392C23.7628 9.55374 25.0163 11.0766 25.7573 12.8594C26.4982 14.6423 26.6933 16.605 26.3177 18.4989C25.9422 20.3927 25.0129 22.1325 23.6477 23.4977C22.2825 24.8629 20.5427 25.7922 18.6489 26.1677C16.755 26.5433 14.7923 26.3482 13.0095 25.6072C11.2266 24.8663 9.70376 23.6128 8.63395 22.0056C7.56414 20.3983 6.99548 18.5097 7.00003 16.579C7.01108 14.0021 8.03965 11.5339 9.8618 9.71177C11.6839 7.88962 14.1521 6.86106 16.729 6.85ZM16.729 7.818C14.9963 7.818 13.3024 8.33183 11.8617 9.2945C10.4209 10.2572 9.29802 11.6254 8.63492 13.2263C7.97182 14.8272 7.79832 16.5887 8.13637 18.2882C8.47441 19.9877 9.30882 21.5487 10.5341 22.774C11.7593 23.9992 13.3204 24.8336 15.0198 25.1717C16.7193 25.5097 18.4809 25.3362 20.0817 24.6731C21.6826 24.01 23.0509 22.8871 24.0135 21.4464C24.9762 20.0056 25.49 18.3118 25.49 16.579C25.4906 15.4283 25.2643 14.2889 24.8242 13.2257C24.3841 12.1625 23.7388 11.1965 22.9252 10.3829C22.1115 9.56923 21.1455 8.92392 20.0823 8.48382C19.0192 8.04373 17.8797 7.81748 16.729 7.818Z" fill="#4C60EB"/>
<path d="M14.332 18.885H19.132C19.8749 18.8836 20.5891 19.1718 21.1229 19.6885C21.6567 20.2051 21.9681 20.9095 21.991 21.652L21.115 22.436V21.744C21.1121 21.4866 21.0586 21.2322 20.9573 20.9955C20.8561 20.7588 20.7092 20.5444 20.525 20.3645C20.3408 20.1846 20.123 20.0428 19.884 19.9471C19.645 19.8515 19.3895 19.8038 19.132 19.807H14.332C13.8192 19.8099 13.3282 20.0149 12.9655 20.3775C12.6029 20.7402 12.3979 21.2312 12.395 21.744V22.436L11.473 21.652C11.5113 20.9147 11.8276 20.2194 12.3581 19.706C12.8886 19.1925 13.5939 18.8992 14.332 18.885Z" fill="#4C60EB"/>
</svg>
