<svg width="34" height="34" viewBox="0 0 34 34" fill="none" xmlns="http://www.w3.org/2000/svg">
<path opacity="0.1" d="M26 0H8C3.58172 0 0 3.58172 0 8V26C0 30.4183 3.58172 34 8 34H26C30.4183 34 34 30.4183 34 26V8C34 3.58172 30.4183 0 26 0Z" fill="#4C60EB"/>
<path d="M22.933 16.699C22.8718 16.4654 22.7505 16.252 22.581 16.08C22.5046 16.0134 22.4191 15.9582 22.327 15.916C22.2809 15.8963 22.2335 15.8799 22.185 15.867H22.174C22.1082 15.8512 22.0414 15.8398 21.974 15.833H21.958C21.915 15.833 21.867 15.833 21.821 15.827H21.412V15.094H21.394C21.401 14.341 21.437 13.594 21.383 12.856C21.2916 11.8749 20.8942 10.9474 20.2469 10.2045C19.5997 9.46158 18.7353 8.94089 17.776 8.716C17.513 8.656 17.245 8.616 16.976 8.573H16.365C16.227 8.596 16.089 8.621 15.95 8.641C14.8388 8.8122 13.8243 9.37186 13.0868 10.2205C12.3493 11.0691 11.9366 12.1518 11.922 13.276C11.922 13.784 11.922 14.2917 11.922 14.799V15.825H11.522C11.475 15.825 11.422 15.825 11.383 15.832H11.369C11.3016 15.8388 11.2348 15.8501 11.169 15.866H11.162C11.0131 15.9038 10.8757 15.9776 10.762 16.081C10.5929 16.2527 10.4719 16.4658 10.411 16.699C10.4113 16.701 10.4113 16.703 10.411 16.705C10.4001 16.7634 10.394 16.8226 10.393 16.882V24.797C10.3934 24.8641 10.4001 24.9311 10.413 24.997C10.431 25.05 10.448 25.104 10.468 25.157C10.5262 25.3157 10.6218 25.458 10.7466 25.572C10.8714 25.686 11.0217 25.7683 11.185 25.812C11.207 25.819 11.229 25.827 11.251 25.835C11.3169 25.848 11.3839 25.8547 11.451 25.855H21.895C21.9642 25.8547 22.0332 25.8477 22.101 25.834C22.164 25.813 22.228 25.792 22.289 25.767C22.4403 25.7055 22.5752 25.6098 22.6832 25.4873C22.7911 25.3647 22.8691 25.2188 22.911 25.061C22.918 25.038 22.927 25.016 22.935 24.994C22.948 24.9281 22.9547 24.8611 22.955 24.794C22.954 22.108 22.933 19.392 22.933 16.699ZM17.375 21.237C17.3335 21.2635 17.3001 21.301 17.2786 21.3453C17.2571 21.3896 17.2482 21.439 17.253 21.488C17.253 21.993 17.253 22.498 17.253 23.003C17.253 23.1578 17.1915 23.3062 17.0821 23.4156C16.9727 23.525 16.8243 23.5865 16.6695 23.5865C16.5148 23.5865 16.3663 23.525 16.2569 23.4156C16.1475 23.3062 16.086 23.1578 16.086 23.003C16.086 22.4963 16.086 21.99 16.086 21.484C16.0908 21.4377 16.0829 21.3911 16.0632 21.349C16.0434 21.3068 16.0126 21.2709 15.974 21.245C15.755 21.0898 15.5972 20.8629 15.5278 20.6036C15.4584 20.3443 15.4818 20.0689 15.594 19.825C15.7033 19.5798 15.893 19.3794 16.1319 19.2568C16.3707 19.1343 16.6442 19.0971 16.9071 19.1514C17.17 19.2057 17.4064 19.3482 17.5772 19.5553C17.7479 19.7624 17.8428 20.0216 17.846 20.29C17.8527 20.4746 17.8131 20.6579 17.7308 20.8233C17.6485 20.9887 17.5262 21.1309 17.375 21.237ZM19.4 15.089V15.822H13.937V15.278C13.9451 15.2494 13.9485 15.2197 13.947 15.19C13.947 14.777 13.941 14.364 13.947 13.951C13.9372 13.5952 13.9506 13.2391 13.987 12.885C14.095 12.2164 14.4483 11.612 14.978 11.19C15.5077 10.7679 16.1757 10.5585 16.8515 10.6026C17.5273 10.6468 18.1624 10.9412 18.6328 11.4285C19.1031 11.9159 19.3749 12.561 19.395 13.238C19.407 13.855 19.4 14.472 19.4 15.089Z" fill="#4C60EB"/>
</svg>
